<?xml version="1.0" encoding="UTF-8"?>
<svg version="1.1" xmlns="http://www.w3.org/2000/svg" width="512" height="512">
<path d="M0 0 C2.354314 0.02151621 4.7055895 0.00001556 7.05981445 -0.02539062 C19.85988198 -0.06013574 31.174683 1.95628613 42.88378906 7.20141602 C60.66590822 15.05711189 75.65663331 16.99629623 94.86889648 16.50720215 C99.68107766 16.39370731 104.49423903 16.35369125 109.30758667 16.32777405 C111.84558583 16.30906195 114.38356549 16.26737626 116.92068481 16.19798279 C126.75695081 16.06297927 134.91849417 17.96439706 142.25708008 24.81835938 C149.11719485 32.44848703 151.03718834 40.51943917 151.78833008 50.52148438 C153.17665039 49.69970703 153.17665039 49.69970703 154.59301758 48.86132812 C164.53732058 42.98751082 174.5238091 37.18878354 184.53540039 31.43041992 C189.75441402 28.42838938 194.96961102 25.42121492 200.16511536 22.37870789 C201.93823537 21.34065319 203.71279548 20.30510419 205.48779297 19.27026367 C207.71510667 17.97064018 209.93971382 16.66636315 212.16113281 15.35668945 C223.47071644 8.77403549 233.38390891 5.17525249 246.69848633 8.17773438 C254.92210564 11.12654377 261.63242982 16.82537278 265.78833008 24.52148438 C269.75243805 33.10180467 270.12954965 42.12201899 267.35083008 51.14648438 C262.66195433 62.13479016 253.93122257 68.27296864 243.72583008 73.77148438 C241.99060519 74.73888454 240.2553957 75.70631447 238.52139282 76.67590332 C236.75633249 77.66034766 234.98719562 78.63714617 233.2175293 79.61328125 C228.02668762 82.50176328 222.90883495 85.51065313 217.78833008 88.52148438 C206.2550045 95.26502393 194.68277366 101.94031437 183.10571289 108.60839844 C179.734787 110.55236188 176.36667094 112.50111371 172.99926758 114.45117188 C166.60300113 118.15417608 160.19877272 121.84308075 153.78833008 125.52148438 C152.47251953 126.27848633 152.47251953 126.27848633 151.13012695 127.05078125 C121.68685725 143.93838441 92.03512677 152.12466953 57.92504883 148.38476562 C56.7954776 148.26498856 55.66590637 148.14521149 54.50210571 148.02180481 C52.08184505 147.7642791 49.66184685 147.5042766 47.24209595 147.24200439 C43.4295315 146.8289686 39.61623579 146.42332922 35.80273438 146.01904297 C23.79357198 144.7404083 11.79060307 143.4197962 -0.20385742 142.00976562 C-2.20864426 141.77681119 -4.21344533 141.54397927 -6.21826172 141.3112793 C-9.87009317 140.88708582 -13.51938933 140.44656966 -17.16796875 139.99536133 C-35.8698578 137.76250541 -54.45049993 138.30829093 -73.21166992 139.52148438 C-73.16526367 140.12476563 -73.11885742 140.72804688 -73.07104492 141.34960938 C-73.03495117 142.14882813 -72.99885742 142.94804687 -72.96166992 143.77148438 C-72.91526367 144.56039062 -72.86885742 145.34929687 -72.82104492 146.16210938 C-73.37054359 149.48108133 -74.57664093 150.46323454 -77.21166992 152.52148438 C-80.39916992 153.02941895 -80.39916992 153.02941895 -84.21166992 153.0390625 C-85.25629395 153.04957642 -85.25629395 153.04957642 -86.32202148 153.06030273 C-88.61897924 153.07787633 -90.91470013 153.06626357 -93.21166992 153.05273438 C-94.81063066 153.05542951 -96.40958979 153.0593121 -98.00854492 153.06433105 C-101.35766218 153.07022519 -104.70635235 153.0616663 -108.05541992 153.04296875 C-112.34645583 153.02017873 -116.63649103 153.03330233 -120.92749023 153.05725861 C-124.22867358 153.07171917 -127.52962003 153.06710953 -130.83081055 153.05674744 C-132.412843 153.05408084 -133.99489703 153.0573476 -135.5769043 153.06666565 C-137.78907155 153.07683616 -139.99962292 153.06132628 -142.21166992 153.0390625 C-143.46979492 153.03588013 -144.72791992 153.03269775 -146.02416992 153.02941895 C-149.77685657 152.43142074 -150.79956526 151.35095752 -153.21166992 148.52148438 C-155.33242925 148.12187959 -155.33242925 148.12187959 -157.56323242 148.49804688 C-158.40595703 148.59102051 -159.24868164 148.68399414 -160.11694336 148.77978516 C-161.01445312 148.9007959 -161.91196289 149.02180664 -162.83666992 149.14648438 C-163.76511719 149.25331543 -164.69356445 149.36014648 -165.65014648 149.47021484 C-168.50663566 149.80160652 -171.35878459 150.16053538 -174.21166992 150.52148438 C-176.69968186 150.81694164 -179.18836067 151.10464541 -181.67797852 151.38623047 C-183.14790305 151.55374592 -184.61708175 151.72801526 -186.08520508 151.91064453 C-191.15492239 152.51369315 -196.10579947 152.59156495 -201.21166992 152.52148438 C-202.42238712 138.49423004 -202.25194004 124.52574399 -202.09057617 110.45898438 C-202.06622428 107.97078937 -202.04238343 105.48258932 -202.01902771 102.99438477 C-201.95669045 96.49749934 -201.88748565 90.00070519 -201.81677246 83.50390625 C-201.73308493 75.68092084 -201.65806524 67.85784847 -201.58156586 60.03479004 C-201.46485 48.19694198 -201.33723376 36.35925677 -201.21166992 24.52148438 C-185.37166992 24.52148438 -169.53166992 24.52148438 -153.21166992 24.52148438 C-152.88166992 22.54148437 -152.55166992 20.56148438 -152.21166992 18.52148438 C-148.5360743 16.07108729 -146.71088007 16.25748522 -142.32519531 16.23095703 C-141.62892532 16.22423981 -140.93265533 16.21752258 -140.21528625 16.21060181 C-137.91322702 16.19160113 -135.61145895 16.18769675 -133.30932617 16.18554688 C-131.70893737 16.1791208 -130.10854976 16.17239258 -128.50816345 16.16537476 C-125.15320105 16.15339714 -121.79834165 16.14969447 -118.44335938 16.15087891 C-114.14452128 16.15108222 -109.84634335 16.12376969 -105.54766178 16.08933449 C-102.24223293 16.06709709 -98.93696382 16.06304037 -95.63146782 16.06409836 C-94.04662232 16.06173802 -92.4617727 16.05289013 -90.87700081 16.03743362 C-88.66004305 16.01783459 -86.44451997 16.0235859 -84.22753906 16.03564453 C-82.96639786 16.03279449 -81.70525665 16.02994446 -80.40589905 16.02700806 C-77.21166992 16.52148438 -77.21166992 16.52148438 -74.7731781 18.30184937 C-73.21166992 20.52148438 -73.21166992 20.52148438 -73.21166992 24.52148438 C-66.19195623 22.57473451 -60.47352207 19.51803171 -54.33666992 15.64648438 C-36.79653598 4.91461817 -20.59213736 -0.22282617 0 0 Z M-50.07885742 33.00585938 C-50.71911865 33.41489502 -51.35937988 33.82393066 -52.01904297 34.24536133 C-53.22211491 35.02194497 -54.41273939 35.81838637 -55.5859375 36.6394043 C-61.73534205 40.60741731 -64.82379599 39.82249488 -73.21166992 40.52148438 C-73.21166992 67.58148438 -73.21166992 94.64148438 -73.21166992 122.52148438 C-66.94166992 122.19148438 -60.67166992 121.86148438 -54.21166992 121.52148438 C-38.76229031 121.03866979 -23.76349796 122.1315982 -8.42651367 123.92773438 C-6.22479734 124.17562329 -4.02293503 124.42221859 -1.82093811 124.66760254 C3.90754982 125.3084556 9.6344509 125.96240639 15.36096191 126.6206665 C24.55286382 127.67637359 33.74636446 128.71757569 42.94119072 129.7474823 C46.12182307 130.10657901 49.30127248 130.47501092 52.48072815 130.84436035 C79.25901087 133.9002753 104.52622236 132.33350417 128.78833008 119.52148438 C129.55032715 119.12074707 130.31232422 118.72000977 131.09741211 118.30712891 C144.84005787 111.03005566 158.26446743 103.22162354 171.67016602 95.34667969 C176.987014 92.23450027 182.32516694 89.1594133 187.66333008 86.08398438 C188.7388916 85.46378418 189.81445312 84.84358398 190.92260742 84.20458984 C196.44815889 81.01921373 201.97639348 77.83856062 207.50708008 74.66210938 C213.94298895 70.96371603 220.3678712 67.24661987 226.78833008 63.52148438 C227.78348633 62.94672363 228.77864258 62.37196289 229.80395508 61.77978516 C232.5967733 60.1626202 235.38119022 58.53193492 238.16333008 56.89648438 C238.98365723 56.42380127 239.80398438 55.95111816 240.64916992 55.46411133 C245.89482454 52.35310784 249.78382288 49.53500598 251.78833008 43.52148438 C252.18513456 38.26382493 251.68331154 34.96045595 248.78833008 30.52148438 C245.15821543 26.93009095 241.97150972 24.38742509 236.79223633 24.13867188 C230.87945716 24.22120319 226.72576698 26.70547944 221.72583008 29.64648438 C220.30125488 30.45412231 220.30125488 30.45412231 218.84790039 31.27807617 C215.81562932 33.00524071 212.8010851 34.76053173 209.78833008 36.52148438 C207.83674569 37.65080293 205.88492458 38.77971251 203.93286133 39.90820312 C199.94913922 42.2190667 195.973714 44.54351881 192.00317383 46.87695312 C182.34343832 52.5512999 172.629163 58.1309742 162.91723633 63.71533203 C159.84702503 65.48760288 156.78553864 67.27412365 153.72583008 69.06445312 C151.8508538 70.15433768 149.975855 71.24418351 148.10083008 72.33398438 C146.83686401 73.08059326 146.83686401 73.08059326 145.54736328 73.84228516 C144.75676514 74.29974121 143.96616699 74.75719727 143.15161133 75.22851562 C142.13514526 75.82369995 142.13514526 75.82369995 141.09814453 76.4309082 C134.89553827 79.35946144 129.20978589 79.8230566 122.45654297 79.84033203 C121.0943866 79.85540047 121.0943866 79.85540047 119.70471191 79.87077332 C116.72347609 79.90149602 113.74232962 79.91861005 110.76098633 79.93554688 C108.68590024 79.9542673 106.61082169 79.97384136 104.53575134 79.99423218 C99.08934992 80.04546692 93.64292385 80.08513898 88.19641113 80.12237549 C82.63258813 80.16246944 77.06886694 80.21353718 71.50512695 80.26367188 C60.5995996 80.36032865 49.69401465 80.4447662 38.78833008 80.52148438 C38.78833008 75.24148438 38.78833008 69.96148437 38.78833008 64.52148438 C41.16463623 64.53719482 43.54094238 64.55290527 45.98925781 64.5690918 C53.86417566 64.61892992 61.73910069 64.65199004 69.61413479 64.67692089 C74.38607097 64.69253822 79.15784476 64.71370425 83.9296875 64.74780273 C88.53976589 64.78053697 93.14968865 64.79836694 97.75987434 64.8061161 C99.51363637 64.81163446 101.26739045 64.82241019 103.02108574 64.83867455 C117.08074573 65.60431049 117.08074573 65.60431049 129.38450623 60.06925964 C133.48939777 55.36068789 134.14420161 52.11591116 134.06567383 46.06054688 C133.65456564 42.29688035 132.30546648 40.3035825 129.78833008 37.52148438 C124.33461545 33.22813456 120.00887336 32.36042894 113.20483398 32.5065918 C112.10303299 32.52489044 111.00123199 32.54318909 109.86604309 32.56204224 C108.67766342 32.58346283 107.48928375 32.60488342 106.26489258 32.62695312 C53.9951358 33.1350292 53.9951358 33.1350292 30.45166016 20.79296875 C26.66238033 18.98395149 22.92370275 18.12335626 18.78833008 17.52148438 C17.47928711 17.31652344 17.47928711 17.31652344 16.14379883 17.10742188 C-8.40731992 14.71866438 -29.40935725 19.56075203 -50.07885742 33.00585938 Z " fill="#3C9AE2" transform="translate(217.211669921875,327.478515625)"/>
<path d="M0 0 C0.85078125 0.48339844 1.7015625 0.96679688 2.578125 1.46484375 C21.43273405 13.16419649 34.78420341 32.43010202 40.4375 53.75 C44.23985999 70.11020507 43.99501469 89.26064546 38 105 C37.42185547 106.58941406 37.42185547 106.58941406 36.83203125 108.2109375 C28.0640931 130.74084976 11.24013874 147.93552849 -10.8125 157.75 C-12.86221669 158.53426255 -14.92577061 159.28307693 -17 160 C-18.12019531 160.39316406 -19.24039063 160.78632813 -20.39453125 161.19140625 C-42.13619427 167.72528823 -66.39278978 165.59068293 -86.46191406 155.13256836 C-108.5666505 143.08022397 -123.84051442 124.84103006 -131.4375 100.875 C-136.39081142 83.77163771 -135.87913696 63.78648316 -130 47 C-129.649375 45.96359375 -129.29875 44.9271875 -128.9375 43.859375 C-120.13632145 20.51180412 -102.39066308 3.98573592 -79.98681641 -6.15869141 C-53.67849064 -17.29883525 -24.32145977 -13.93150283 0 0 Z " fill="#BCDAFE" transform="translate(342,92)"/>
<path d="M0 0 C0.85078125 0.48339844 1.7015625 0.96679688 2.578125 1.46484375 C21.43273405 13.16419649 34.78420341 32.43010202 40.4375 53.75 C44.23985999 70.11020507 43.99501469 89.26064546 38 105 C37.42185547 106.58941406 37.42185547 106.58941406 36.83203125 108.2109375 C28.0640931 130.74084976 11.24013874 147.93552849 -10.8125 157.75 C-12.86221669 158.53426255 -14.92577061 159.28307693 -17 160 C-18.12019531 160.39316406 -19.24039063 160.78632813 -20.39453125 161.19140625 C-42.13619427 167.72528823 -66.39278978 165.59068293 -86.46191406 155.13256836 C-108.5666505 143.08022397 -123.84051442 124.84103006 -131.4375 100.875 C-136.39081142 83.77163771 -135.87913696 63.78648316 -130 47 C-129.649375 45.96359375 -129.29875 44.9271875 -128.9375 43.859375 C-120.13632145 20.51180412 -102.39066308 3.98573592 -79.98681641 -6.15869141 C-53.67849064 -17.29883525 -24.32145977 -13.93150283 0 0 Z M-55.46875 4.0546875 C-71.80413533 5.09088732 -86.74587139 14.76551211 -98 26 C-98.93779297 26.92039062 -98.93779297 26.92039062 -99.89453125 27.859375 C-113.31360478 42.03573259 -118.47486033 60.00098447 -118.2109375 79.0703125 C-117.57950459 99.37750671 -108.18457253 116.75109986 -93.7578125 130.6484375 C-77.91074952 144.16108894 -58.58756939 149.29519799 -38.12402344 148.19091797 C-23.40553122 146.86794545 -8.92555539 139.77549693 2 130 C2.74765625 129.34515625 3.4953125 128.6903125 4.265625 128.015625 C17.3428703 115.82798822 25.08156884 98.36688749 26.21875 80.578125 C26.72178681 60.37281306 20.78160394 41.29194185 6.88745117 26.36547852 C-5.87284656 13.26325836 -23.19152857 4.60507733 -41.6328125 3.8515625 C-46.25135727 3.80565251 -50.85255243 3.95242996 -55.46875 4.0546875 Z " fill="#3D9AE2" transform="translate(342,92)"/>
<path d="M0 0 C5.90856377 4.34706113 10.9080926 9.88849669 15.875 15.25 C16.56464844 15.98855225 17.25429687 16.72710449 17.96484375 17.48803711 C23.36134571 23.27855937 28.70984186 29.11215572 34 35 C32.61761648 38.10009769 31.01421141 40.28263873 28.625 42.6875 C28.03976563 43.28949219 27.45453125 43.89148438 26.8515625 44.51171875 C24.79839906 46.16204632 23.59884736 46.67571986 21 47 C18.7636353 45.16588076 16.89554887 43.40989468 14.9375 41.3125 C14.40833984 40.76916016 13.87917969 40.22582031 13.33398438 39.66601562 C10.67952942 36.91164393 8.20510811 34.13598419 6 31 C6.40758906 53.71382679 14.42548236 75.8384155 28 94 C28.62519531 94.84691406 29.25039062 95.69382812 29.89453125 96.56640625 C49.38889926 121.93687704 77.36150156 137.60935124 109 142 C141.01848714 145.76688084 172.85593773 136.87718349 198.23999023 116.984375 C214.79819676 103.56194358 227.0747649 86.81308774 235 67 C240.28 68.98 245.56 70.96 251 73 C248.14274282 87.28628592 238.42936565 101.11098023 229 112 C228.56719727 112.50821289 228.13439453 113.01642578 227.68847656 113.54003906 C211.45885688 132.49632969 190.2640296 146.65803207 166.5 154.3125 C165.43519409 154.65800903 165.43519409 154.65800903 164.34887695 155.01049805 C151.17791318 159.00680985 138.26462573 160.53574919 124.5625 160.375 C123.84155151 160.37001495 123.12060303 160.36502991 122.37780762 160.3598938 C111.68666481 160.27340784 101.34284604 159.96490019 91 157 C90.18708496 156.76893555 89.37416992 156.53787109 88.53662109 156.29980469 C54.79532237 146.41429428 27.1377838 126.55264846 8 97 C7.45730469 96.19304687 6.91460937 95.38609375 6.35546875 94.5546875 C-6.10662676 75.15459159 -10.60086722 52.53631205 -13 30 C-13.68400879 30.69162231 -13.68400879 30.69162231 -14.38183594 31.3972168 C-17.59451433 34.63064126 -20.80567903 37.82322143 -24.25 40.8125 C-24.89453125 41.37582031 -25.5390625 41.93914062 -26.203125 42.51953125 C-28 44 -28 44 -31 46 C-32.84269011 44.23807715 -34.67390757 42.46648194 -36.5 40.6875 C-37.02464844 40.18798828 -37.54929688 39.68847656 -38.08984375 39.17382812 C-39.4510846 37.83910496 -40.73139516 36.4230616 -42 35 C-42 32 -42 32 -40.49609375 30.421875 C-39.47708984 29.59429687 -39.47708984 29.59429687 -38.4375 28.75 C-35.66417279 26.42995826 -33.02466287 24.0887998 -30.5 21.5 C-27.4647467 18.40956027 -24.26092815 15.58322978 -20.9765625 12.76171875 C-19.01990879 11.01774479 -17.19754693 9.19526323 -15.375 7.3125 C-6.65721692 -1.46458772 -6.65721692 -1.46458772 0 0 Z " fill="#3C9AE2" transform="translate(172,144)"/>
<path d="M0 0 C25.93016166 25.04468313 37.78609845 57.31631854 41.5480957 92.52514648 C42.00410156 92.06406494 42.46010742 91.6029834 42.92993164 91.12792969 C46.14261003 87.89450522 49.35377473 84.70192505 52.7980957 81.71264648 C53.76489258 80.86766602 53.76489258 80.86766602 54.7512207 80.00561523 C56.5480957 78.52514648 56.5480957 78.52514648 59.5480957 76.52514648 C61.20301944 78.09897596 62.84675595 79.6845755 64.4855957 81.27514648 C65.40211914 82.15686523 66.31864258 83.03858398 67.26293945 83.94702148 C69.37238914 86.32691343 70.20876641 87.43508398 70.5480957 90.52514648 C70.02344727 90.98920898 69.49879883 91.45327148 68.95825195 91.93139648 C62.42583102 97.75731599 56.04721968 103.73395642 49.70263672 109.76342773 C36.64872838 122.12502597 36.64872838 122.12502597 31.9230957 123.02514648 C26.7712625 122.26191194 24.15516449 119.10414469 20.5480957 115.52514648 C19.64704102 114.66276367 19.64704102 114.66276367 18.7277832 113.78295898 C15.0418114 110.19616131 11.66001266 106.39728322 8.3059082 102.50170898 C6.04092196 99.95485778 3.62352721 97.58792912 1.19262695 95.20092773 C-1.19295851 92.77001048 -3.31711588 90.17745936 -5.4519043 87.52514648 C-4.06952078 84.42504879 -2.46611571 82.24250775 -0.0769043 79.83764648 C0.50833008 79.2356543 1.09356445 78.63366211 1.6965332 78.01342773 C3.75740988 76.35690028 4.93440746 75.82887128 7.5480957 75.52514648 C9.16381836 76.55737305 9.16381836 76.55737305 10.7121582 78.16577148 C11.27676758 78.74198242 11.84137695 79.31819336 12.4230957 79.91186523 C13.0005957 80.52674805 13.5780957 81.14163086 14.1730957 81.77514648 C15.05094727 82.67426758 15.05094727 82.67426758 15.9465332 83.59155273 C18.42790835 86.1582963 20.55887634 88.54131745 22.5480957 91.52514648 C22.01104191 61.59660328 8.43755285 34.44410851 -12.4519043 13.52514648 C-13.30268555 12.66276367 -14.1534668 11.80038086 -15.0300293 10.91186523 C-36.95640553 -10.19391308 -67.88116921 -20.60983238 -98.0144043 -20.50610352 C-129.24195606 -19.74577464 -156.88531751 -6.71857142 -179.4519043 14.52514648 C-180.05518555 15.06397461 -180.6584668 15.60280273 -181.2800293 16.15795898 C-192.56366784 26.65068829 -200.78009277 41.34561767 -206.4519043 55.52514648 C-211.7319043 53.54514648 -217.0119043 51.56514648 -222.4519043 49.52514648 C-217.51201812 24.82571562 -195.14488317 0.81590567 -174.9519043 -13.22485352 C-172.79718708 -14.65962967 -170.63084678 -16.07714163 -168.4519043 -17.47485352 C-167.49799805 -18.09102539 -166.5440918 -18.70719727 -165.5612793 -19.34204102 C-113.05314256 -51.62163327 -44.17482315 -41.42499797 0 0 Z " fill="#3C9AE2" transform="translate(391.451904296875,69.474853515625)"/>
<path d="M0 0 C15.84 0 31.68 0 48 0 C48 34.32 48 68.64 48 104 C32.16 104 16.32 104 0 104 C0 69.68 0 35.36 0 0 Z " fill="#BDDBFF" transform="translate(80,360)"/>
<path d="M0 0 C15.84 0 31.68 0 48 0 C48 30.03 48 60.06 48 91 C6 96 6 96 0 96 C0 64.32 0 32.64 0 0 Z " fill="#BCDAFE" transform="translate(16,368)"/>
<path d="M0 0 C5.28 0 10.56 0 16 0 C16 5.28 16 10.56 16 16 C17.175625 16.0825 18.35125 16.165 19.5625 16.25 C27.26828995 17.26748987 31.76212365 21.23737981 36.5546875 27.05078125 C39.96630601 31.65185595 40 34.11273047 40 40 C34.72 40 29.44 40 24 40 C23.01 38.02 22.02 36.04 21 34 C19.35 33.34 17.7 32.68 16 32 C16 37.28 16 42.56 16 48 C17.175625 48.0825 18.35125 48.165 19.5625 48.25 C27.27315534 49.26813231 31.59615638 53.23539282 36.51953125 58.90234375 C40.53655352 64.59400855 40.71487505 70.25046542 40 77 C38.16279219 84.68174808 33.30553928 89.50702863 27 94 C22.80742593 95.93503419 20.744186 96 16 96 C16 101.28 16 106.56 16 112 C10.72 112 5.44 112 0 112 C0 106.72 0 101.44 0 96 C-1.32 95.95875 -2.64 95.9175 -4 95.875 C-10.89758185 95.10498693 -15.35477631 91.00925374 -19.875 86 C-23.28618884 81.184204 -24 77.90043065 -24 72 C-18.72 72 -13.44 72 -8 72 C-7.01 73.98 -6.02 75.96 -5 78 C-3.35 78.66 -1.7 79.32 0 80 C0 74.72 0 69.44 0 64 C-1.32 63.95875 -2.64 63.9175 -4 63.875 C-10.89758185 63.10498693 -15.35477631 59.00925374 -19.875 54 C-24.31054544 47.7380535 -24.82356443 41.49764504 -24 34 C-22.13464824 26.92668627 -16.78722647 22.15743419 -11 18 C-6.82535715 15.87546539 -5.06742722 16 0 16 C0 10.72 0 5.44 0 0 Z " fill="#3E9AE2" transform="translate(288,112)"/>
<path d="M0 0 C5.28 0 10.56 0 16 0 C16 5.28 16 10.56 16 16 C10.72 16 5.44 16 0 16 C0 10.72 0 5.44 0 0 Z " fill="#3D9AE2" transform="translate(96,440)"/>
<path d="M0 0 C0 5.28 0 10.56 0 16 C-5 15 -5 15 -6.8125 13.3125 C-8.40188959 10.21737291 -8.56159999 8.43979993 -8 5 C-3.97826087 0 -3.97826087 0 0 0 Z " fill="#B7D7FD" transform="translate(288,144)"/>
<path d="M0 0 C6 2 6 2 8 5 C8.35245721 8.31309774 8.34400223 10.33010093 6.8125 13.3125 C5 15 5 15 0 16 C0 10.72 0 5.44 0 0 Z " fill="#B7D8FD" transform="translate(304,176)"/>
</svg>
